<svg xmlns="http://www.w3.org/2000/svg" width="114" height="35" viewBox="0 0 114 35" fill="none"><path fill-rule="evenodd" clip-rule="evenodd" d="M18.2435 35H33.3955C36.8554 35 36.8899 31.3459 36.5375 29.5418C36.345 28.3293 34.2715 28.3394 34.0432 29.5418V30.9495C34.0432 31.5924 33.5133 32.119 32.866 32.119H18.2435H17.0742H3.81609C3.16876 32.119 2.63919 31.5924 2.63919 30.9495V29.5418C2.41089 28.3394 0.337342 28.3293 0.144796 29.5418C-0.207254 31.3459 -0.173311 35 3.28681 35H17.0742H18.2435ZM7.53125 0H29.7221H30.8945C32.5361 0 33.8788 1.41217 33.8788 3.13835V4.63827C33.8788 6.75876 30.9879 6.7507 30.9879 4.6526V3.83323C30.9879 3.31207 30.559 2.88582 30.0342 2.88582H6.62318C6.09871 2.88582 5.66976 3.31207 5.66976 3.83323V4.63588C5.66976 6.74473 2.91464 6.7298 2.91464 4.68155V3.13835C2.91464 1.41217 4.25766 0 5.89896 0H7.53125Z" fill="#2A6BAE"></path><path fill-rule="evenodd" clip-rule="evenodd" d="M33.2903 17.2407C34.9085 17.997 36.0256 19.5584 36.0256 21.3512C36.0256 23.8788 33.8049 25.9468 31.09 25.9468H23.4816C22.7699 25.9468 22.1875 25.4047 22.1875 24.7421V10.3574C22.1875 9.66373 22.7594 9.0957 23.4587 9.0957H29.7959C32.4636 9.0957 34.6462 11.2625 34.6462 13.9104C34.6462 15.1996 34.1287 16.3741 33.2903 17.2407ZM27.6115 16.0691H30.0272V16.0425C31.1272 15.8748 31.9767 14.9244 31.9767 13.7862C31.9767 12.5307 30.9428 11.5033 29.6794 11.5033H24.8135V23.44H30.984C32.2888 23.44 33.3564 22.3792 33.3564 21.0825C33.3564 19.7859 32.2888 18.7251 30.984 18.7251H30.0272V18.7194H27.6115C26.878 18.7194 26.2778 18.1233 26.2778 17.3944C26.2778 16.6655 26.878 16.0691 27.6115 16.0691Z" fill="#1A202C"></path><path d="M20.9783 24.5105C21.0675 25.3436 20.4598 26.091 19.6215 26.1793C18.7831 26.268 18.0309 25.6644 17.942 24.8311L16.6909 13.3916L12.2596 24.577L12.2551 24.5875L12.2548 24.5887V24.589L12.2425 24.6185L12.2326 24.6418L12.2302 24.6475L12.2197 24.6708L12.2131 24.6848L12.2026 24.7066L12.1975 24.7167L12.1857 24.7397L12.1815 24.7478C12.0998 24.9009 11.9947 25.0355 11.8718 25.1487L11.8673 25.1525L11.8445 25.1731C11.7646 25.2436 11.6763 25.3057 11.5805 25.3591L11.5739 25.3627L11.545 25.3782L11.5438 25.3788L11.5171 25.3925L11.5048 25.3988L11.4876 25.4068L11.4693 25.4152L11.4534 25.4227L11.4345 25.4307L11.418 25.4376L11.4023 25.4442L11.3882 25.4495L11.3801 25.4528L11.3672 25.4576L11.3471 25.4651L11.3354 25.4689C11.1876 25.5203 11.0371 25.5477 10.8878 25.5531L10.8698 25.5537L10.8481 25.554H10.8325H10.8166L10.7956 25.5537L10.7763 25.5531C10.6096 25.5471 10.4408 25.5134 10.2765 25.4495L10.2561 25.4415L10.251 25.4391L10.2305 25.431L10.2107 25.4224L10.1948 25.4149L10.1777 25.4071L10.1593 25.3985L10.1488 25.3931L10.1209 25.3791L10.1182 25.3773L10.0945 25.3645L10.0809 25.3573C9.99714 25.3104 9.91934 25.2564 9.84755 25.1964L9.84184 25.1913C9.82472 25.1767 9.8079 25.1624 9.79138 25.1472L9.79048 25.146C9.77756 25.134 9.76464 25.1218 9.75233 25.1096C9.74001 25.097 9.7274 25.0845 9.71538 25.0716L9.71448 25.0704C9.69916 25.054 9.68444 25.0376 9.66972 25.0203L9.66461 25.0146C9.60424 24.9433 9.55017 24.866 9.50301 24.7827L9.4955 24.7696L9.48228 24.7457L9.48108 24.7427L9.46666 24.7155L9.46155 24.7048L9.45284 24.6869L9.44473 24.6696L9.43752 24.6538L9.42881 24.6341L9.4201 24.6141L9.4183 24.609L9.40989 24.5887L4.97381 13.3916L3.72271 24.8311C3.6335 25.6644 2.88164 26.268 2.04327 26.1793C1.20459 26.091 0.597216 25.3436 0.68643 24.5105L2.16132 11.0237L2.16192 11.0201L2.16252 11.0144L2.16192 11.0141C2.17964 10.8571 2.21298 10.7007 2.26104 10.5473C2.3076 10.3984 2.36978 10.2515 2.44668 10.1082C2.82336 9.40528 3.51635 8.91217 4.34331 8.79844L4.34631 8.79785C4.37395 8.79426 4.40188 8.79128 4.42952 8.78889C4.55898 8.77546 4.68785 8.77158 4.81461 8.77755L4.82062 8.77785V8.77755C4.98553 8.78531 5.13993 8.8059 5.28231 8.83874C6.07112 9.02172 6.74127 9.56706 7.05668 10.3631L10.8325 19.8931L14.608 10.3631C14.9234 9.56706 15.5936 9.02172 16.3824 8.83874C16.5245 8.8059 16.6789 8.78531 16.8441 8.77755V8.77785L16.8501 8.77755C16.9772 8.77158 17.1063 8.77546 17.2361 8.78889C17.2634 8.79128 17.2908 8.79426 17.3184 8.79785L17.3214 8.79844C18.1484 8.91217 18.8417 9.40528 19.2183 10.1082C19.2949 10.2515 19.3574 10.3984 19.4037 10.5473C19.4517 10.7007 19.4851 10.8568 19.5028 11.0141L19.5022 11.0144L19.5028 11.0201L19.5034 11.0237L20.9783 24.5105Z" fill="#1A202C"></path><path d="M57.1346 13.8748C57.1346 13.6581 57.2207 13.4503 57.3739 13.2971C57.5271 13.1439 57.7349 13.0578 57.9516 13.0578C58.1683 13.0578 58.3761 13.1439 58.5293 13.2971C58.6825 13.4503 58.7685 13.6581 58.7685 13.8748V18.2863C58.7673 19.2562 58.3817 20.1862 57.6963 20.8725C57.0109 21.5588 56.0815 21.9456 55.1115 21.9481C54.1415 21.9468 53.2116 21.5613 52.5253 20.8759C51.839 20.1905 51.4522 19.261 51.4497 18.2911V13.8796C51.441 13.7673 51.4557 13.6545 51.4927 13.5482C51.5297 13.4419 51.5883 13.3444 51.6648 13.2619C51.7413 13.1793 51.834 13.1134 51.9372 13.0683C52.0403 13.0233 52.1517 13 52.2642 13C52.3768 13 52.4881 13.0233 52.5913 13.0683C52.6944 13.1134 52.7871 13.1793 52.8636 13.2619C52.9401 13.3444 52.9987 13.4419 53.0357 13.5482C53.0727 13.6545 53.0874 13.7673 53.0788 13.8796V18.2911C53.0838 18.8295 53.3002 19.3443 53.6814 19.7246C54.0626 20.1048 54.5779 20.3201 55.1163 20.3238C55.6555 20.3213 56.1718 20.1056 56.5526 19.7239C56.9334 19.3422 57.1478 18.8254 57.1491 18.2863L57.1346 13.8748Z" fill="#1D1D1B"></path><path d="M64.8626 20.3189C65.0792 20.3189 65.287 20.405 65.4402 20.5582C65.5934 20.7114 65.6795 20.9192 65.6795 21.1358C65.6795 21.3525 65.5934 21.5603 65.4402 21.7135C65.287 21.8667 65.0792 21.9528 64.8626 21.9528H62.5943C61.7825 21.9528 61.0039 21.6303 60.4298 21.0562C59.8557 20.4821 59.5332 19.7035 59.5332 18.8916V13.8746C59.5332 13.6592 59.6188 13.4527 59.7711 13.3004C59.9234 13.1481 60.1299 13.0625 60.3453 13.0625C60.5607 13.0625 60.7673 13.1481 60.9196 13.3004C61.0719 13.4527 61.1575 13.6592 61.1575 13.8746V18.882C61.1575 19.2644 61.3094 19.6311 61.5797 19.9014C61.8501 20.1718 62.2168 20.3237 62.5991 20.3237H64.8626V20.3189Z" fill="#1D1D1B"></path><path d="M51.1332 21.0445C51.153 21.1542 51.1502 21.2668 51.125 21.3754C51.0997 21.4839 51.0525 21.5862 50.9862 21.6758C50.9199 21.7655 50.836 21.8406 50.7395 21.8966C50.6431 21.9526 50.5363 21.9882 50.4256 22.0014C50.3149 22.0145 50.2027 22.0049 50.0958 21.973C49.989 21.9411 49.8898 21.8877 49.8044 21.8161C49.719 21.7445 49.6491 21.6561 49.5991 21.5565C49.5491 21.4568 49.52 21.348 49.5137 21.2367L48.8169 15.3595L46.3228 21.1262C46.2372 21.3248 46.0763 21.4814 45.8754 21.5616C45.6745 21.6417 45.45 21.639 45.2511 21.5539C45.0601 21.4715 44.9084 21.3182 44.8283 21.1262L42.3342 15.3595L41.6326 21.2367C41.6262 21.348 41.5971 21.4568 41.5471 21.5565C41.4971 21.6561 41.4273 21.7445 41.3419 21.8161C41.2564 21.8877 41.1573 21.9411 41.0504 21.973C40.9436 22.0049 40.8314 22.0145 40.7207 22.0014C40.6099 21.9882 40.5031 21.9526 40.4067 21.8966C40.3103 21.8406 40.2264 21.7655 40.1601 21.6758C40.0938 21.5862 40.0466 21.4839 40.0213 21.3754C39.996 21.2668 39.9932 21.1542 40.0131 21.0445L40.8348 14.2206C40.8612 14.0056 40.9404 13.8005 41.0653 13.6236C41.1903 13.4466 41.3571 13.3034 41.5509 13.2066C41.6019 13.1788 41.6549 13.1547 41.7095 13.1345H41.7719C41.8497 13.1075 41.9303 13.0898 42.0122 13.0817C42.2169 13.0532 42.4254 13.0708 42.6224 13.1332C42.8194 13.1955 43.0001 13.3011 43.1511 13.4421C43.2117 13.4989 43.2665 13.5617 43.3145 13.6295C43.35 13.6785 43.3821 13.7299 43.4106 13.7833C43.4285 13.8127 43.4446 13.8432 43.4587 13.8746L45.5731 18.7763L47.6876 13.8361C47.7744 13.6399 47.907 13.4672 48.0742 13.3326C48.2414 13.198 48.4384 13.1054 48.6487 13.0624C48.728 13.0462 48.8082 13.035 48.889 13.0288H49.1388C49.3469 13.0522 49.5468 13.1228 49.7233 13.2353C49.8999 13.3477 50.0484 13.499 50.1576 13.6776C50.2032 13.7517 50.2402 13.8307 50.2682 13.913C50.2882 13.9642 50.3027 14.0174 50.3114 14.0716C50.3137 14.1068 50.3137 14.1421 50.3114 14.1773L51.1332 21.0445Z" fill="#1D1D1B"></path><path d="M68.4204 21.1358C68.4204 21.3524 68.3343 21.5602 68.1811 21.7134C68.0279 21.8666 67.8201 21.9527 67.6034 21.9527C67.3867 21.9527 67.179 21.8666 67.0257 21.7134C66.8725 21.5602 66.7865 21.3524 66.7865 21.1358V14.6915H64.4654C64.2487 14.6915 64.0409 14.6054 63.8877 14.4522C63.7345 14.299 63.6484 14.0912 63.6484 13.8746C63.6484 13.6579 63.7345 13.4501 63.8877 13.2969C64.0409 13.1437 64.2487 13.0576 64.4654 13.0576H70.7414C70.9581 13.0576 71.1659 13.1437 71.3191 13.2969C71.4723 13.4501 71.5584 13.6579 71.5584 13.8746C71.5584 14.0912 71.4723 14.299 71.3191 14.4522C71.1659 14.6054 70.9581 14.6915 70.7414 14.6915H68.4204V21.1358Z" fill="#1D1D1B"></path><path d="M73.5128 21.1358C73.5128 21.3524 73.4267 21.5602 73.2735 21.7134C73.1203 21.8666 72.9125 21.9527 72.6959 21.9527C72.4792 21.9527 72.2714 21.8666 72.1182 21.7134C71.965 21.5602 71.8789 21.3524 71.8789 21.1358V13.8746C71.8789 13.6579 71.965 13.4501 72.1182 13.2969C72.2714 13.1437 72.4792 13.0576 72.6959 13.0576C72.9125 13.0576 73.1203 13.1437 73.2735 13.2969C73.4267 13.4501 73.5128 13.6579 73.5128 13.8746V21.1358Z" fill="#1D1D1B"></path><path d="M90.2406 21.0448C90.2544 21.2532 90.1878 21.459 90.0545 21.6198C89.9213 21.7807 89.7315 21.8844 89.5241 21.9096C89.3167 21.9349 89.1076 21.8797 88.9397 21.7555C88.7717 21.6313 88.6577 21.4475 88.6211 21.2418L88.3328 18.9351H85.5264C85.4141 18.9438 85.3013 18.9291 85.195 18.8921C85.0887 18.855 84.9912 18.7965 84.9087 18.72C84.8261 18.6435 84.7602 18.5508 84.7151 18.4476C84.6701 18.3445 84.6468 18.2331 84.6468 18.1206C84.6468 18.008 84.6701 17.8967 84.7151 17.7935C84.7602 17.6904 84.8261 17.5977 84.9087 17.5212C84.9912 17.4447 85.0887 17.3861 85.195 17.3491C85.3013 17.3121 85.4141 17.2974 85.5264 17.306H88.1502L88.0733 16.7053C88.0733 16.7053 88.0733 16.6669 88.0733 16.6477C88.0521 16.5065 88.0216 16.3668 87.982 16.2296C87.938 16.0826 87.8818 15.9395 87.8138 15.8019C87.6709 15.4807 87.4396 15.2066 87.1469 15.0118C86.8542 14.817 86.5122 14.7093 86.1607 14.7014C86.0216 14.7024 85.883 14.7186 85.7474 14.7495C85.6205 14.7811 85.4979 14.8279 85.3822 14.8888C85.059 15.0758 84.7866 15.3392 84.5889 15.6558C84.3912 15.9725 84.2741 16.3329 84.2481 16.7053L83.7387 21.2418C83.727 21.3478 83.6946 21.4505 83.6432 21.544C83.5919 21.6375 83.5226 21.7199 83.4394 21.7866C83.3561 21.8533 83.2606 21.903 83.1582 21.9328C83.0558 21.9626 82.9485 21.9719 82.8425 21.9602C82.7364 21.9486 82.6337 21.9161 82.5403 21.8647C82.4468 21.8134 82.3643 21.7441 82.2976 21.6609C82.2309 21.5777 82.1812 21.4821 82.1515 21.3797C82.1217 21.2773 82.1123 21.17 82.124 21.064L82.6334 16.5275C82.6875 15.8856 82.8996 15.267 83.251 14.7269C83.6023 14.1869 84.0819 13.7423 84.6469 13.4328C84.8763 13.3174 85.1182 13.2288 85.3678 13.1685C85.6277 13.108 85.8938 13.0774 86.1607 13.0771C86.8153 13.0808 87.4552 13.2713 88.0052 13.6263C88.5551 13.9813 88.9923 14.486 89.2651 15.0811C89.3764 15.3039 89.4696 15.5353 89.5438 15.7731C89.6064 15.992 89.653 16.2153 89.6832 16.441C89.6877 16.4649 89.6877 16.4893 89.6832 16.5131L90.2406 21.0448Z" fill="#1D1D1B"></path><path d="M92.7363 21.1358C92.7449 21.248 92.7303 21.3608 92.6932 21.4671C92.6562 21.5734 92.5976 21.6709 92.5211 21.7535C92.4447 21.836 92.352 21.9019 92.2488 21.947C92.1457 21.9921 92.0343 22.0153 91.9218 22.0153C91.8092 22.0153 91.6979 21.9921 91.5947 21.947C91.4916 21.9019 91.3988 21.836 91.3224 21.7535C91.2459 21.6709 91.1873 21.5734 91.1503 21.4671C91.1132 21.3608 91.0986 21.248 91.1072 21.1358V14.408C91.1023 14.3617 91.1023 14.3149 91.1072 14.2686C91.1178 14.1784 91.1387 14.0897 91.1697 14.0043L91.237 13.8601C91.3776 13.6101 91.605 13.4204 91.8761 13.3267L91.9866 13.2979H92.0731H92.2654H92.2894C92.4562 13.3049 92.6195 13.3481 92.7681 13.4244C92.9166 13.5008 93.0467 13.6084 93.1496 13.74L97.4746 19.2808V13.8746C97.4746 13.6579 97.5607 13.4501 97.7139 13.2969C97.8671 13.1437 98.0749 13.0576 98.2915 13.0576C98.5082 13.0576 98.716 13.1437 98.8692 13.2969C99.0224 13.4501 99.1085 13.6579 99.1085 13.8746V20.6023C99.1077 20.773 99.0689 20.9413 98.9949 21.0951C98.921 21.2489 98.8136 21.3843 98.6808 21.4914C98.6286 21.5352 98.5723 21.5739 98.5126 21.6067C98.4804 21.6256 98.4466 21.6417 98.4117 21.6548L98.3444 21.6836C98.0579 21.7837 97.7435 21.7665 97.4698 21.6355L97.3641 21.5827C97.307 21.5467 97.2538 21.5048 97.2055 21.4577C97.1679 21.425 97.1325 21.3896 97.0997 21.352L97.0709 21.3184L92.7363 15.7583V21.1358Z" fill="#1D1D1B"></path><path d="M105.479 20.319C105.696 20.319 105.903 20.405 106.057 20.5583C106.21 20.7115 106.296 20.9193 106.296 21.1359C106.296 21.3526 106.21 21.5604 106.057 21.7136C105.903 21.8668 105.696 21.9529 105.479 21.9529H103.076C102.224 21.9529 101.406 21.6142 100.803 21.0112C100.2 20.4083 99.8613 19.5906 99.8613 18.7379V16.2823C99.8639 15.4304 100.203 14.6142 100.806 14.0118C101.408 13.4094 102.224 13.0699 103.076 13.0674H105.479C105.696 13.0674 105.903 13.1535 106.057 13.3067C106.21 13.4599 106.296 13.6677 106.296 13.8843C106.296 14.101 106.21 14.3088 106.057 14.462C105.903 14.6152 105.696 14.7013 105.479 14.7013H103.076C102.653 14.7063 102.248 14.8791 101.952 15.1818C101.801 15.3272 101.681 15.5011 101.599 15.6934C101.516 15.8856 101.473 16.0923 101.471 16.3015V18.7572C101.474 19.1783 101.642 19.5814 101.94 19.8791C102.238 20.1769 102.641 20.3453 103.062 20.3478H105.465L105.479 20.319Z" fill="#1D1D1B"></path><path d="M110.204 14.6867C109.629 14.6845 109.076 14.905 108.661 15.3018C108.464 15.4871 108.307 15.7103 108.198 15.9581C108.09 16.2059 108.033 16.4731 108.031 16.7435V18.2669C108.033 18.537 108.088 18.804 108.196 19.0518C108.303 19.2996 108.46 19.5231 108.656 19.7085C109.071 20.1054 109.624 20.3259 110.199 20.3236C110.773 20.3259 111.326 20.1054 111.741 19.7085C111.938 19.5233 112.096 19.3 112.204 19.0522C112.312 18.8044 112.369 18.5373 112.371 18.2669V16.7435C112.369 16.4736 112.312 16.2069 112.205 15.9592C112.098 15.7116 111.942 15.488 111.746 15.3018C111.328 14.9059 110.774 14.6857 110.199 14.6867M110.199 13.0576C111.194 13.054 112.152 13.4365 112.871 14.1245C113.226 14.4612 113.509 14.8665 113.703 15.3158C113.897 15.7652 113.998 16.2492 114 16.7387V18.2621C113.998 18.7515 113.897 19.2356 113.703 19.6849C113.509 20.1343 113.226 20.5396 112.871 20.8763C112.152 21.5643 111.194 21.9467 110.199 21.9431C109.204 21.9467 108.246 21.5643 107.527 20.8763C107.173 20.5386 106.891 20.1331 106.698 19.6839C106.505 19.2347 106.404 18.7511 106.402 18.2621V16.7387C106.404 16.2497 106.505 15.7661 106.698 15.3169C106.891 14.8677 107.173 14.4621 107.527 14.1245C108.246 13.4365 109.204 13.054 110.199 13.0576Z" fill="#1D1D1B"></path><path d="M75.8253 14.6917V20.3191H78.9777C79.1126 20.3191 79.2461 20.2924 79.3706 20.2407C79.4951 20.1889 79.6081 20.1131 79.7032 20.0176C79.7983 19.922 79.8736 19.8086 79.9248 19.6838C79.976 19.5591 80.002 19.4255 80.0013 19.2907C80.0019 19.0344 79.9058 18.7873 79.7322 18.5987L79.6986 18.5698C79.6052 18.4729 79.4932 18.3957 79.3694 18.3428C79.2456 18.29 79.1124 18.2626 78.9777 18.2623H77.8917C77.675 18.2623 77.4672 18.1762 77.314 18.023C77.1608 17.8698 77.0747 17.662 77.0747 17.4453C77.0747 17.2287 77.1608 17.0209 77.314 16.8677C77.4672 16.7145 77.675 16.6284 77.8917 16.6284H78.2617C78.4934 16.6079 78.7108 16.5077 78.8768 16.3449C78.9682 16.2553 79.0408 16.1483 79.0903 16.0303C79.1398 15.9123 79.1653 15.7856 79.1652 15.6577C79.1652 15.4027 79.0639 15.1583 78.8837 14.978C78.7034 14.7978 78.459 14.6965 78.2041 14.6965H75.8253V14.6917ZM74.1914 17.4549V13.9084C74.1909 13.7976 74.2139 13.6879 74.2587 13.5865C74.3038 13.4816 74.3673 13.3856 74.4461 13.3029C74.5918 13.1637 74.783 13.0818 74.9843 13.0723H78.18C78.8695 13.0723 79.5308 13.3462 80.0184 13.8337C80.5059 14.3213 80.7798 14.9826 80.7798 15.6721C80.7783 16.1615 80.6402 16.6409 80.381 17.0561C80.5547 17.1589 80.716 17.2814 80.8615 17.4213L80.9144 17.479C81.3808 17.9706 81.6406 18.6226 81.64 19.3003C81.6388 20.0034 81.3589 20.6774 80.8617 21.1746C80.3645 21.6718 79.6905 21.9517 78.9874 21.9529H75.0084C74.7917 21.9529 74.5839 21.8669 74.4307 21.7137C74.2775 21.5605 74.1914 21.3527 74.1914 21.136V17.4549Z" fill="#1D1D1B"></path></svg>