<svg xmlns="http://www.w3.org/2000/svg" width="72" height="40" viewBox="0 0 72 40" fill="none"><path d="M69.0929 15.7595C68.6814 16.6739 68.2882 17.6021 67.8448 18.5027C67.4516 19.3029 67.0538 20.1075 66.5006 20.8116C66.3771 20.9717 66.3405 21.1088 66.3405 21.2917C66.3451 22.2656 66.3405 23.2394 66.3405 24.2087C66.3405 24.5836 66.1211 24.835 65.7096 24.8991C65.449 24.9402 65.0787 24.8122 64.9598 24.4647C64.9186 24.3458 64.8958 24.2178 64.8958 24.0898C64.8912 23.1114 64.8958 22.133 64.8912 21.1545C64.8912 21.0585 64.8638 20.9442 64.8089 20.8665C64.0774 19.8835 63.5562 18.7862 63.0258 17.6935C62.7286 17.0763 62.4589 16.4453 62.1937 15.8144C62.0702 15.5126 62.1251 15.2337 62.3903 15.0051C62.66 14.7674 63.2453 14.8177 63.4236 15.1331C63.5973 15.4303 63.7299 15.7504 63.8762 16.0658C64.0088 16.3585 64.1277 16.6556 64.2648 16.9482C64.5849 17.6158 64.9095 18.2833 65.2432 18.9462C65.353 19.1657 65.4901 19.3714 65.641 19.632C65.9611 19.0148 66.2811 18.4387 66.5646 17.8489C66.9669 17.0077 67.3327 16.1481 67.7305 15.3023C68.0002 14.7308 68.6769 14.6896 69.0472 15.2109C69.0655 15.2337 69.0838 15.2566 69.0975 15.2794C69.0929 15.4349 69.0929 15.5995 69.0929 15.7595Z" fill="#D6040F"></path><path d="M50.6489 22.7365C50.7861 22.1421 50.9278 21.5477 51.0604 20.9488C51.2479 20.1167 51.4308 19.2846 51.6136 18.4479C51.7782 17.6889 51.9428 16.9345 52.1074 16.1756C52.1623 15.9149 52.2263 15.6589 52.2766 15.3937C52.3315 15.1057 52.4915 14.9182 52.7841 14.8725C53.0356 14.8314 53.2825 14.8542 53.4973 15.0188C53.7579 15.22 53.7397 15.4943 53.6802 15.7686C53.4745 16.7653 53.2687 17.7621 53.0538 18.7542C52.903 19.4537 52.7475 20.1487 52.5692 20.8436C52.2949 21.9181 52.0114 22.9879 51.7097 24.0532C51.5039 24.7756 50.9461 24.9905 50.2603 24.8487C49.8443 24.7619 49.6294 24.483 49.5242 24.1035C49.2133 22.9742 48.8933 21.8449 48.5961 20.7065C48.4132 20.0115 48.2715 19.3028 48.1069 18.6033C48.0977 18.5576 48.0749 18.5119 48.0474 18.4296C47.9377 18.8639 47.8417 19.2663 47.7365 19.6686C47.4348 20.8208 47.1376 21.9775 46.8176 23.1251C46.6941 23.5594 46.5295 23.9846 46.3603 24.4053C46.182 24.8579 45.6883 24.9265 45.3499 24.899C45.071 24.8716 44.783 24.8167 44.6184 24.5516C44.5132 24.3824 44.4126 24.2041 44.3578 24.0166C44.0743 23.0199 43.7909 22.0278 43.544 21.0219C43.2742 19.9292 43.0365 18.8273 42.7987 17.7255C42.6478 17.0305 42.5198 16.3356 42.3872 15.636C42.3049 15.2017 42.5884 14.8634 43.041 14.8634C43.1462 14.8634 43.2513 14.8634 43.3519 14.8817C43.6583 14.9365 43.7771 15.1697 43.832 15.4349C44.1109 16.7699 44.3715 18.105 44.655 19.44C44.879 20.5053 45.1259 21.566 45.3636 22.6313C45.3774 22.6907 45.4094 22.7502 45.4779 22.8096C45.8163 21.502 46.1638 20.1944 46.4929 18.8822C46.7261 17.9541 46.9273 17.0214 47.1513 16.0887C47.2108 15.8464 47.2382 15.5903 47.4211 15.3846C47.6862 15.0828 48.0292 15.0783 48.3721 15.1423C48.7241 15.2108 48.8978 15.4897 48.971 15.8281C49.099 16.4087 49.2179 16.9894 49.3459 17.57C49.5288 18.4021 49.7071 19.2388 49.9083 20.0664C50.1186 20.9305 50.3518 21.79 50.5758 22.6496C50.5849 22.677 50.5986 22.6999 50.6124 22.7273C50.6215 22.7365 50.6352 22.7365 50.6489 22.7365Z" fill="#D6040F"></path><path d="M60.068 22.0415C58.8244 22.0415 57.5854 22.0415 56.3464 22.0415C56.2504 22.0415 56.2092 22.069 56.1818 22.1695C55.9669 22.8874 55.7474 23.6052 55.5234 24.3184C55.3588 24.8488 54.9428 24.9905 54.4581 24.8533C54.1472 24.7665 53.9918 24.387 54.1015 24.0395C54.417 23.0474 54.7096 22.0461 55.0479 21.0631C55.5783 19.5315 56.1269 18.0044 56.6893 16.4865C56.8356 16.0887 57.0505 15.7184 57.2288 15.3297C57.3568 15.0463 57.59 14.8954 57.8826 14.8725C58.1706 14.8497 58.477 14.8131 58.7421 14.9777C58.8656 15.0554 59.0119 15.1514 59.0668 15.2794C59.3137 15.8418 59.5468 16.4179 59.7617 16.994C60.2098 18.1918 60.6487 19.3897 61.0785 20.5922C61.3619 21.3831 61.6134 22.1878 61.8832 22.9834C61.9975 23.3217 62.1072 23.66 62.2169 23.9984C62.3266 24.3321 62.2215 24.6476 61.9472 24.7939C61.6454 24.9585 61.1973 24.9676 61.0053 24.6659C60.9002 24.5013 60.8316 24.3093 60.7676 24.1218C60.5298 23.436 60.3012 22.7456 60.068 22.0415ZM58.2072 16.6465C58.1752 16.6465 58.1432 16.6465 58.1112 16.6419C57.6403 17.9632 57.1694 19.2846 56.6984 20.6196C57.6997 20.6196 58.6507 20.6196 59.6428 20.6196C59.1582 19.28 58.6827 17.9632 58.2072 16.6465Z" fill="#D6040F"></path><path fill-rule="evenodd" clip-rule="evenodd" d="M10.4415 4H30.6015H31.6671C33.1583 4 34.3775 5.2928 34.3775 6.8704V8.2432C34.3775 10.1824 31.7503 10.176 31.7503 8.256V7.5072C31.7503 7.0304 31.3599 6.64 30.8831 6.64H9.6159C9.1391 6.64 8.7487 7.0304 8.7487 7.5072V8.24C8.7487 10.1696 6.2463 10.1536 6.2463 8.2816V6.8704C6.2495 5.2928 7.4687 4 8.9599 4H10.4415ZM20.1759 36H33.9423C37.0847 36 37.1167 32.6592 36.7967 31.0112C36.6207 29.904 34.7391 29.9104 34.5311 31.0112V32.2976C34.5311 32.8864 34.0511 33.3664 33.4623 33.3664H20.1759H19.1135H7.0655C6.4767 33.3664 5.9967 32.8864 5.9967 32.2976V31.0112C5.7887 29.9104 3.9039 29.904 3.7311 31.0112C3.4111 32.6592 3.4431 36 6.5855 36H19.1103H20.1759Z" fill="#D6040F"></path><path fill-rule="evenodd" clip-rule="evenodd" d="M28.6846 18.6912H30.8798V18.6656C31.8782 18.512 32.6526 17.6416 32.6526 16.6016C32.6526 15.4528 31.7118 14.5152 30.5662 14.5152H26.1438V25.4272H31.7502C32.9342 25.4272 33.907 24.4576 33.907 23.2704C33.907 22.0864 32.9374 21.1136 31.7502 21.1136H30.8798V21.1072H28.6846C28.019 21.1072 27.4718 20.5632 27.4718 19.8944C27.4718 19.2384 28.019 18.6912 28.6846 18.6912ZM33.843 19.7632C35.3118 20.4544 36.3294 21.8816 36.3294 23.52C36.3294 25.8304 34.3102 27.7216 31.8462 27.7216H24.9342C24.2878 27.7216 23.7598 27.2256 23.7598 26.6208V13.4688C23.7598 12.8352 24.2782 12.3136 24.915 12.3136H30.6718C33.0942 12.3136 35.0782 14.2944 35.0782 16.7168C35.075 17.8976 34.6046 18.9696 33.843 19.7632Z" fill="black"></path><path d="M22.6583 26.4096C22.7383 27.1712 22.1879 27.856 21.4263 27.936C20.6647 28.016 19.9799 27.4656 19.8999 26.704L18.7639 16.2464L14.7351 26.4704L14.7319 26.48L14.7223 26.5056L14.7127 26.528L14.7095 26.5344L14.6999 26.5568L14.6935 26.5696L14.6839 26.5888L14.6807 26.5984L14.6711 26.6176L14.6679 26.624C14.5943 26.7648 14.4983 26.8864 14.3863 26.992L14.3831 26.9952L14.3639 27.0144C14.2903 27.0784 14.2103 27.136 14.1239 27.184L14.1175 27.1872L14.0919 27.2L14.0663 27.2128L14.0567 27.2192L14.0407 27.2256L14.0247 27.232L14.0087 27.2384L13.9927 27.2448L13.9767 27.2512L13.9639 27.2576L13.9511 27.264L13.9447 27.2672L13.9319 27.2704L13.9127 27.2768L13.9031 27.28C13.7687 27.328 13.6311 27.3504 13.4967 27.3568H13.4807H13.4615H13.4487H13.4359H13.4167H13.4007C13.2503 27.3504 13.0967 27.3216 12.9463 27.2608L12.9271 27.2544L12.9239 27.2512L12.9047 27.2448L12.8855 27.2384L12.8695 27.232L12.8535 27.2256L12.8375 27.2192L12.8279 27.2128L12.8023 27.2L12.7991 27.1968L12.7767 27.184L12.7639 27.1776C12.6871 27.136 12.6167 27.0848 12.5527 27.0304L12.5463 27.0272C12.5303 27.0144 12.5143 27.0016 12.5015 26.9856C12.4887 26.976 12.4791 26.9632 12.4663 26.9536C12.4567 26.9408 12.4439 26.9312 12.4343 26.9184C12.4215 26.9024 12.4055 26.8896 12.3927 26.8736L12.3895 26.8672C12.3351 26.8032 12.2839 26.7328 12.2423 26.656L12.2359 26.6432L12.2231 26.6208V26.6176L12.2103 26.592L12.2071 26.5824L12.2007 26.5664L12.1943 26.5504L12.1879 26.5376L12.1815 26.5184L12.1751 26.4992L12.1719 26.496L12.1655 26.4768L8.11752 16.2432L6.98152 26.7008C6.90152 27.4624 6.21672 28.016 5.45512 27.9328C4.69352 27.8528 4.13992 27.168 4.22312 26.4064L5.56392 14.08V14.0768V14.0704C5.57992 13.9264 5.61192 13.7824 5.65352 13.6448C5.69512 13.5072 5.75272 13.3728 5.82312 13.2448C6.16552 12.6016 6.79592 12.1504 7.54792 12.048H7.55112C7.57672 12.0448 7.60232 12.0416 7.62792 12.0384C7.74632 12.0256 7.86152 12.0224 7.97672 12.0288H7.98312C8.13352 12.0352 8.27432 12.0544 8.40232 12.0864C9.11912 12.2528 9.72712 12.752 10.0151 13.4816L13.4455 22.1952L16.8759 13.4816C17.1639 12.7552 17.7719 12.256 18.4887 12.0864C18.6167 12.0576 18.7575 12.0384 18.9079 12.0288H18.9143C19.0295 12.0224 19.1479 12.0256 19.2663 12.0384C19.2919 12.0416 19.3175 12.0448 19.3399 12.048H19.3431C20.0951 12.1504 20.7255 12.6016 21.0679 13.2448C21.1383 13.376 21.1927 13.5104 21.2375 13.6448C21.2823 13.7856 21.3111 13.9264 21.3271 14.0704V14.0768V14.08L22.6583 26.4096Z" fill="black"></path></svg>