<svg xmlns="http://www.w3.org/2000/svg" width="2000" height="2000" viewBox="0 0 2000 2000" version="1.1"><path d="" stroke="none" fill="#747474" fill-rule="evenodd"/><path d="M 219.500 62.268 C 214 63.396, 209.275 64.637, 209 65.027 C 208.725 65.416, 205.800 66.514, 202.500 67.467 C 199.200 68.419, 196.275 69.504, 196 69.877 C 195.725 70.250, 193.475 71.430, 191 72.500 C 188.525 73.570, 186.275 74.732, 186 75.083 C 185.725 75.434, 184.050 76.464, 182.278 77.372 C 178.514 79.300, 172.682 83.118, 168.678 86.275 C 165.851 88.504, 164.756 89.454, 157.434 96.035 C 150.823 101.976, 136.193 120.413, 133.655 126 C 133.281 126.825, 131.855 129.483, 130.487 131.907 C 129.119 134.331, 128 136.919, 128 137.657 C 128 138.396, 127.621 139, 127.158 139 C 126.695 139, 125.480 141.813, 124.456 145.250 C 123.433 148.688, 122.325 151.725, 121.994 152 C 121.663 152.275, 120.404 156.860, 119.196 162.188 L 117 171.876 117 634.589 L 117 1097.303 119.195 1107.902 C 120.402 1113.731, 121.708 1118.725, 122.096 1119 C 122.484 1119.275, 123.550 1122.079, 124.466 1125.232 C 125.382 1128.384, 126.485 1131.182, 126.917 1131.449 C 127.350 1131.716, 128.513 1134.054, 129.502 1136.645 C 131.141 1140.937, 134.405 1146.634, 136.986 1149.708 C 137.544 1150.372, 138 1151.228, 138 1151.609 C 138 1151.990, 141.335 1156.397, 145.412 1161.401 C 152.932 1170.633, 164.713 1181.940, 170.384 1185.368 C 172.098 1186.404, 173.725 1187.547, 174 1187.909 C 174.578 1188.668, 182.451 1193.552, 189 1197.214 C 191.475 1198.598, 195.300 1200.306, 197.500 1201.010 C 199.700 1201.714, 201.725 1202.590, 202 1202.956 C 202.275 1203.323, 205.650 1204.447, 209.500 1205.454 C 213.350 1206.461, 216.950 1207.604, 217.500 1207.994 C 220.121 1209.853, 237.986 1211.002, 264.250 1211.001 L 293 1211 293 1223.441 C 293 1230.284, 293.384 1236.119, 293.854 1236.410 C 294.323 1236.700, 295.015 1240.664, 295.392 1245.219 C 296.361 1256.945, 297.994 1267.001, 299.498 1270.500 C 300.207 1272.150, 301.357 1276.763, 302.054 1280.750 C 302.750 1284.737, 303.661 1288, 304.077 1288 C 304.494 1288, 305.323 1290.277, 305.919 1293.060 C 306.516 1295.843, 307.850 1300.005, 308.883 1302.310 C 309.916 1304.614, 311.096 1307.625, 311.504 1309 C 311.913 1310.375, 313.541 1314.294, 315.123 1317.708 C 316.705 1321.123, 318 1324.330, 318 1324.836 C 318 1325.341, 318.601 1326.254, 319.335 1326.863 C 320.070 1327.473, 321.267 1329.778, 321.995 1331.986 C 322.724 1334.194, 323.668 1336, 324.093 1336 C 324.518 1336, 325.164 1336.940, 325.528 1338.089 C 326.169 1340.109, 332.893 1351.985, 333.969 1353 C 334.664 1353.655, 336.834 1357.118, 337.680 1358.924 C 338.047 1359.707, 338.983 1361.057, 339.760 1361.924 C 340.537 1362.791, 343.845 1367.100, 347.112 1371.500 C 355.471 1382.759, 359.909 1387.764, 372.753 1400.415 C 384.028 1411.522, 387.050 1414.245, 394.500 1420.009 C 396.700 1421.711, 399.625 1423.993, 401 1425.081 C 402.375 1426.169, 406.200 1428.835, 409.500 1431.007 C 412.800 1433.178, 416.175 1435.406, 417 1435.959 C 423.159 1440.083, 426.044 1441.771, 429.750 1443.417 C 432.088 1444.455, 434 1445.597, 434 1445.954 C 434 1446.312, 436.250 1447.414, 439 1448.403 C 441.750 1449.392, 444 1450.512, 444 1450.893 C 444 1451.274, 446.475 1452.427, 449.500 1453.455 C 452.525 1454.484, 455 1455.666, 455 1456.083 C 455 1456.500, 456.462 1457.155, 458.250 1457.538 C 460.038 1457.921, 463.300 1459.097, 465.500 1460.151 C 467.700 1461.206, 472.200 1462.768, 475.500 1463.623 C 478.800 1464.479, 481.950 1465.536, 482.500 1465.972 C 483.050 1466.409, 486.875 1467.503, 491 1468.405 C 495.125 1469.306, 499.400 1470.453, 500.500 1470.954 C 501.600 1471.454, 509.308 1472.794, 517.629 1473.932 C 539.258 1476.889, 580.190 1476.891, 600.979 1473.936 C 608.966 1472.801, 616.208 1471.497, 617.073 1471.038 C 617.939 1470.579, 622.439 1469.433, 627.073 1468.490 C 631.708 1467.547, 635.725 1466.448, 636 1466.048 C 636.275 1465.647, 639.650 1464.490, 643.500 1463.476 C 647.350 1462.462, 651.400 1461.087, 652.500 1460.420 C 653.600 1459.754, 655.625 1458.881, 657 1458.481 C 662.400 1456.909, 689.435 1443.792, 694.835 1440.123 C 696.301 1439.128, 699.300 1437.192, 701.500 1435.822 C 708.719 1431.327, 717.367 1425.528, 719.130 1424 C 720.081 1423.175, 722.129 1421.520, 723.680 1420.321 C 726.884 1417.846, 733.117 1412.698, 737.387 1409 C 739.983 1406.752, 755.971 1390.735, 759.348 1387 C 763.051 1382.904, 777.005 1365.003, 777.041 1364.303 C 777.063 1363.861, 778.413 1361.942, 780.041 1360.038 C 781.668 1358.134, 783 1356.066, 783 1355.443 C 783 1354.820, 783.900 1353.495, 785 1352.500 C 786.100 1351.505, 787 1350.364, 787 1349.966 C 787 1349.188, 793.365 1338.174, 794.799 1336.471 C 795.276 1335.905, 796.477 1333.318, 797.469 1330.721 C 798.460 1328.125, 799.589 1326, 799.976 1326 C 800.363 1326, 801.277 1324.088, 802.007 1321.750 C 802.737 1319.412, 804.159 1316.097, 805.167 1314.382 C 806.175 1312.667, 807 1310.733, 807 1310.084 C 807 1309.435, 807.838 1307.168, 808.863 1305.047 C 809.888 1302.926, 811.548 1298.111, 812.552 1294.346 C 813.556 1290.580, 814.697 1287.275, 815.089 1287 C 815.480 1286.725, 816.595 1282.450, 817.567 1277.500 C 818.538 1272.550, 819.667 1268.273, 820.076 1267.997 C 820.485 1267.720, 821.576 1261.195, 822.500 1253.497 C 823.424 1245.798, 824.590 1238.719, 825.090 1237.764 C 825.591 1236.809, 826 1230.396, 826 1223.514 L 826 1211 1002 1211 L 1178 1211 1178 1224.014 C 1178 1231.171, 1178.419 1237.809, 1178.932 1238.764 C 1179.444 1239.719, 1180.613 1246.575, 1181.529 1254 C 1182.445 1261.425, 1183.553 1267.950, 1183.992 1268.500 C 1184.431 1269.050, 1185.560 1273.325, 1186.500 1278 C 1187.440 1282.675, 1188.546 1286.950, 1188.957 1287.500 C 1189.368 1288.050, 1190.532 1291.763, 1191.545 1295.750 C 1192.557 1299.738, 1193.677 1303, 1194.033 1303 C 1194.389 1303, 1195.280 1304.912, 1196.013 1307.250 C 1197.464 1311.875, 1202.477 1323.591, 1204.035 1326 C 1204.568 1326.825, 1205.496 1328.625, 1206.097 1330 C 1208.181 1334.767, 1209.083 1336.525, 1212.002 1341.500 C 1213.616 1344.250, 1215.708 1347.962, 1216.653 1349.750 C 1217.598 1351.537, 1218.685 1353, 1219.069 1353 C 1219.453 1353, 1220.031 1353.787, 1220.354 1354.750 C 1221.014 1356.714, 1222.761 1359.466, 1225 1362.067 C 1225.825 1363.026, 1228.072 1365.990, 1229.994 1368.655 C 1231.915 1371.320, 1233.741 1373.725, 1234.052 1374 C 1234.362 1374.275, 1235.383 1375.625, 1236.322 1377 C 1240.784 1383.540, 1263.308 1406.797, 1272.640 1414.500 C 1274.639 1416.150, 1277.051 1418.225, 1277.999 1419.112 C 1278.948 1419.998, 1281.136 1421.558, 1282.862 1422.577 C 1284.588 1423.597, 1286 1424.775, 1286 1425.195 C 1286 1425.616, 1287.800 1426.878, 1290 1428 C 1292.200 1429.122, 1294 1430.372, 1294 1430.776 C 1294 1431.181, 1295.251 1432.065, 1296.780 1432.742 C 1298.309 1433.419, 1300.446 1434.654, 1301.530 1435.486 C 1305.401 1438.460, 1310.567 1441.559, 1314.750 1443.417 C 1317.087 1444.455, 1319 1445.597, 1319 1445.954 C 1319 1446.312, 1321.250 1447.414, 1324 1448.403 C 1326.750 1449.392, 1329 1450.606, 1329 1451.100 C 1329 1451.595, 1329.574 1452, 1330.275 1452 C 1330.977 1452, 1334.239 1453.336, 1337.525 1454.969 C 1340.811 1456.601, 1344.084 1457.951, 1344.798 1457.969 C 1345.512 1457.986, 1347.987 1458.915, 1350.298 1460.034 C 1352.609 1461.153, 1357.200 1462.768, 1360.500 1463.623 C 1363.800 1464.479, 1366.950 1465.531, 1367.500 1465.961 C 1368.050 1466.391, 1372.073 1467.525, 1376.441 1468.482 C 1380.808 1469.439, 1385.083 1470.598, 1385.941 1471.059 C 1386.798 1471.520, 1394.308 1472.821, 1402.629 1473.949 C 1424.300 1476.887, 1465.262 1476.881, 1485.979 1473.936 C 1493.966 1472.801, 1501.208 1471.497, 1502.073 1471.038 C 1502.939 1470.579, 1507.439 1469.433, 1512.073 1468.490 C 1516.708 1467.547, 1520.725 1466.448, 1521 1466.048 C 1521.275 1465.647, 1524.650 1464.490, 1528.500 1463.476 C 1532.350 1462.462, 1536.400 1461.087, 1537.500 1460.420 C 1538.600 1459.754, 1540.625 1458.881, 1542 1458.481 C 1547.400 1456.909, 1574.435 1443.792, 1579.835 1440.123 C 1581.301 1439.128, 1584.300 1437.192, 1586.500 1435.822 C 1593.719 1431.327, 1602.367 1425.528, 1604.130 1424 C 1605.081 1423.175, 1607.129 1421.520, 1608.680 1420.321 C 1611.884 1417.846, 1618.117 1412.698, 1622.387 1409 C 1624.983 1406.752, 1640.971 1390.735, 1644.348 1387 C 1648.733 1382.150, 1662 1364.945, 1662 1364.109 C 1662 1363.562, 1662.808 1362.525, 1663.796 1361.807 C 1664.783 1361.088, 1666.350 1358.874, 1667.277 1356.888 C 1668.204 1354.901, 1669.646 1352.708, 1670.482 1352.015 C 1671.317 1351.322, 1672 1350.415, 1672 1349.999 C 1672 1349.215, 1678.298 1338.265, 1679.763 1336.500 C 1680.220 1335.950, 1681.401 1333.476, 1682.388 1331.003 C 1683.374 1328.530, 1684.478 1326.280, 1684.841 1326.003 C 1685.698 1325.349, 1689.659 1316.121, 1692.354 1308.500 C 1693.521 1305.200, 1694.739 1302.275, 1695.062 1302 C 1695.384 1301.725, 1696.240 1299.250, 1696.964 1296.500 C 1697.688 1293.750, 1698.848 1290.150, 1699.541 1288.500 C 1702.826 1280.691, 1708.838 1250.533, 1708.949 1241.309 C 1708.977 1239.004, 1709.450 1236.840, 1710 1236.500 C 1710.580 1236.142, 1711 1230.656, 1711 1223.441 L 1711 1211 1760.668 1211 C 1807.062 1211, 1822.321 1210.293, 1824 1208.067 C 1824.275 1207.702, 1827.313 1206.567, 1830.750 1205.544 C 1834.187 1204.520, 1837 1203.342, 1837 1202.924 C 1837 1202.507, 1839.025 1201.392, 1841.500 1200.447 C 1843.975 1199.502, 1846 1198.412, 1846 1198.025 C 1846 1197.638, 1847.013 1196.843, 1848.250 1196.259 C 1852.105 1194.440, 1868.934 1179.004, 1869.041 1177.189 C 1869.063 1176.810, 1870.413 1174.942, 1872.041 1173.038 C 1873.668 1171.134, 1875 1169.051, 1875 1168.410 C 1875 1167.769, 1875.616 1166.733, 1876.370 1166.108 C 1877.123 1165.483, 1878.544 1162.841, 1879.528 1160.236 C 1880.512 1157.631, 1881.623 1155.275, 1881.998 1155 C 1882.373 1154.725, 1883.652 1150.776, 1884.840 1146.224 C 1887.939 1134.349, 1887.937 1110.699, 1884.835 1098.214 C 1883.644 1093.421, 1882.365 1089.275, 1881.993 1089 C 1881.621 1088.725, 1880.509 1086.362, 1879.522 1083.750 C 1878.536 1081.138, 1877.370 1079, 1876.932 1079 C 1876.493 1079, 1875.834 1077.987, 1875.466 1076.750 C 1875.098 1075.513, 1873.493 1072.839, 1871.899 1070.809 C 1870.304 1068.778, 1869 1066.893, 1869 1066.620 C 1869 1065.026, 1851.890 1049.458, 1848.250 1047.741 C 1847.013 1047.157, 1846 1046.362, 1846 1045.975 C 1846 1045.588, 1843.975 1044.498, 1841.500 1043.553 C 1839.025 1042.608, 1837 1041.493, 1837 1041.076 C 1837 1040.658, 1835.088 1039.753, 1832.750 1039.064 C 1830.412 1038.375, 1827.150 1037.203, 1825.500 1036.460 C 1821.426 1034.626, 1811.825 1033, 1805.066 1033 L 1799.500 1033 1799.500 868.250 C 1799.500 736.135, 1799.232 701.222, 1798.148 692 C 1797.404 685.675, 1796.461 680.050, 1796.053 679.500 C 1795.644 678.950, 1794.504 674.678, 1793.519 670.007 C 1792.533 665.335, 1791.158 660.610, 1790.462 659.507 C 1789.766 658.403, 1788.879 655.925, 1788.490 654 C 1788.102 652.075, 1786.987 649.150, 1786.013 647.500 C 1785.039 645.850, 1783.703 642.813, 1783.044 640.750 C 1782.384 638.688, 1781.529 637, 1781.143 637 C 1780.756 637, 1779.567 634.750, 1778.500 632 C 1777.433 629.250, 1776.311 627, 1776.007 627 C 1775.703 627, 1774.566 625.312, 1773.480 623.250 C 1772.394 621.188, 1770.941 618.905, 1770.252 618.179 C 1769.564 617.452, 1769 616.524, 1769 616.117 C 1769 615.710, 1768.177 614.493, 1767.170 613.413 C 1766.164 612.333, 1764.484 610.110, 1763.437 608.474 C 1762.391 606.838, 1760.739 604.912, 1759.767 604.193 C 1758.795 603.475, 1758 602.416, 1758 601.840 C 1758 600.152, 1525.090 367.832, 1518.500 362.947 C 1515.200 360.501, 1511.905 357.938, 1511.179 357.250 C 1510.452 356.563, 1509.524 356, 1509.117 356 C 1508.710 356, 1507.475 355.212, 1506.373 354.250 C 1504.090 352.257, 1498.576 348.988, 1492 345.730 C 1489.525 344.503, 1487.275 343.234, 1487 342.908 C 1486.725 342.583, 1484.250 341.481, 1481.500 340.460 C 1478.750 339.438, 1476.275 338.302, 1476 337.934 C 1475.725 337.566, 1472.800 336.486, 1469.500 335.533 C 1466.200 334.581, 1463.275 333.482, 1463 333.093 C 1462.725 332.704, 1458.675 331.547, 1454 330.524 C 1449.325 329.500, 1445.050 328.343, 1444.500 327.951 C 1441.270 325.652, 1419.582 325, 1346.330 324.999 L 1268.500 324.999 1268.500 254.249 C 1268.500 201.137, 1268.167 180.883, 1267.164 173 C 1266.430 167.225, 1265.483 162.050, 1265.060 161.500 C 1264.638 160.950, 1263.520 157.359, 1262.577 153.519 C 1261.633 149.680, 1260.472 146.069, 1259.996 145.495 C 1259.519 144.921, 1258.372 142.212, 1257.447 139.475 C 1256.522 136.739, 1255.431 134.275, 1255.024 134 C 1254.617 133.725, 1253.310 131.475, 1252.119 129 C 1245.888 116.045, 1230.920 98.145, 1218 88.195 C 1216.075 86.713, 1213.905 84.938, 1213.179 84.250 C 1212.452 83.563, 1211.524 83, 1211.117 83 C 1210.710 83, 1209.427 82.114, 1208.265 81.032 C 1205.834 78.768, 1191.118 71.005, 1189.250 71.002 C 1188.563 71.001, 1188 70.609, 1188 70.132 C 1188 69.654, 1185.188 68.477, 1181.750 67.516 C 1178.313 66.555, 1175.275 65.421, 1175 64.996 C 1174.725 64.571, 1169.710 63.274, 1163.855 62.112 L 1153.210 60 691.355 60.108 C 229.805 60.217, 229.493 60.218, 219.500 62.268 M 1268.500 635 L 1268.500 767 1444.750 767 L 1621 767 1621 742.237 L 1621 717.475 1513.822 610.237 L 1406.645 503 1337.572 503 L 1268.500 503 1268.500 635 M 540.500 1080.045 C 537.200 1080.558, 533.375 1081.408, 532 1081.933 C 530.625 1082.457, 527.018 1083.372, 523.984 1083.966 C 520.950 1084.559, 517.186 1085.710, 515.620 1086.522 C 514.053 1087.335, 512.258 1088, 511.631 1088 C 510.331 1088, 493.761 1095.892, 493 1096.874 C 492.725 1097.229, 490.813 1098.405, 488.750 1099.487 C 486.688 1100.569, 485 1101.730, 485 1102.067 C 485 1102.404, 483.988 1103.146, 482.750 1103.716 C 480.398 1104.801, 474.479 1109.711, 467.342 1116.500 C 461.863 1121.711, 449.494 1137.263, 447.820 1141.046 C 447.100 1142.671, 446.217 1144, 445.856 1144 C 445.496 1144, 444.392 1146.250, 443.403 1149 C 442.414 1151.750, 441.279 1154, 440.880 1154 C 440.481 1154, 439.614 1155.688, 438.952 1157.750 C 438.290 1159.813, 436.901 1163.395, 435.867 1165.711 C 433.996 1169.899, 432.135 1177.131, 429.490 1190.500 C 428.728 1194.350, 428.105 1203.350, 428.105 1210.500 C 428.105 1217.650, 428.728 1226.650, 429.490 1230.500 C 432.135 1243.869, 433.996 1251.101, 435.867 1255.289 C 436.901 1257.605, 438.290 1261.188, 438.952 1263.250 C 439.614 1265.313, 440.481 1267, 440.880 1267 C 441.279 1267, 442.414 1269.250, 443.403 1272 C 444.392 1274.750, 445.496 1277, 445.856 1277 C 446.217 1277, 447.095 1278.317, 447.808 1279.928 C 451.061 1287.278, 464.804 1302.893, 476.128 1312.107 C 486.078 1320.203, 487.283 1321.090, 490 1322.324 C 491.375 1322.948, 492.725 1323.754, 493 1324.115 C 493.801 1325.166, 510.361 1333, 511.781 1333 C 512.490 1333, 514.067 1333.641, 515.285 1334.426 C 520.438 1337.742, 545.011 1341.891, 559.500 1341.891 C 573.989 1341.891, 598.562 1337.742, 603.715 1334.426 C 604.933 1333.641, 606.510 1333, 607.219 1333 C 608.613 1333, 625.177 1325.182, 626 1324.136 C 626.275 1323.786, 628.075 1322.623, 630 1321.550 C 634.122 1319.254, 633.605 1319.633, 642.500 1312.373 C 646.350 1309.231, 651.110 1305.049, 653.078 1303.080 C 658.709 1297.446, 668.726 1284.643, 670.634 1280.641 C 671.589 1278.639, 672.692 1277, 673.085 1277 C 673.478 1277, 674.608 1274.750, 675.597 1272 C 676.586 1269.250, 677.695 1267, 678.062 1267 C 678.428 1267, 679.507 1264.862, 680.458 1262.250 C 681.410 1259.638, 682.817 1256.091, 683.585 1254.369 C 684.353 1252.647, 685.632 1248.372, 686.428 1244.869 C 687.224 1241.366, 688.438 1236.475, 689.126 1234 C 690.822 1227.900, 690.822 1193.100, 689.126 1187 C 688.438 1184.525, 687.224 1179.634, 686.428 1176.131 C 685.632 1172.628, 684.353 1168.353, 683.585 1166.631 C 682.817 1164.909, 681.410 1161.362, 680.458 1158.750 C 679.507 1156.138, 678.428 1154, 678.062 1154 C 677.695 1154, 676.586 1151.750, 675.597 1149 C 674.608 1146.250, 673.478 1144, 673.085 1144 C 672.692 1144, 671.589 1142.361, 670.634 1140.359 C 666.389 1131.457, 647.210 1110.685, 637.436 1104.403 C 635.821 1103.365, 633.633 1101.730, 632.574 1100.769 C 631.514 1099.809, 629.714 1098.732, 628.574 1098.377 C 627.433 1098.021, 626.275 1097.408, 626 1097.013 C 625.328 1096.050, 611.155 1089, 609.890 1089 C 609.340 1089, 606.908 1088.097, 604.484 1086.993 C 602.061 1085.889, 597.248 1084.342, 593.789 1083.556 C 590.330 1082.770, 585.700 1081.623, 583.500 1081.008 C 578.223 1079.532, 548.130 1078.859, 540.500 1080.045 M 1425.500 1080.045 C 1422.200 1080.558, 1418.375 1081.405, 1417 1081.925 C 1415.625 1082.446, 1412.111 1083.352, 1409.190 1083.939 C 1406.270 1084.525, 1401.907 1085.904, 1399.495 1087.002 C 1397.083 1088.101, 1394.660 1089, 1394.110 1089 C 1392.845 1089, 1378.672 1096.050, 1378 1097.013 C 1377.725 1097.408, 1376.567 1098.021, 1375.426 1098.377 C 1374.286 1098.732, 1372.486 1099.809, 1371.426 1100.769 C 1370.367 1101.730, 1368.179 1103.365, 1366.564 1104.403 C 1357.144 1110.457, 1338.893 1130.062, 1333.426 1140 C 1332.366 1141.925, 1331.240 1143.725, 1330.922 1144 C 1329.890 1144.892, 1327 1151.269, 1327 1152.654 C 1327 1153.394, 1326.611 1154, 1326.136 1154 C 1325.661 1154, 1324.493 1156.138, 1323.542 1158.750 C 1322.590 1161.362, 1321.183 1164.909, 1320.415 1166.631 C 1319.647 1168.353, 1318.368 1172.628, 1317.572 1176.131 C 1316.776 1179.634, 1315.562 1184.525, 1314.874 1187 C 1313.178 1193.100, 1313.178 1227.900, 1314.874 1234 C 1315.562 1236.475, 1316.776 1241.366, 1317.572 1244.869 C 1318.368 1248.372, 1319.647 1252.647, 1320.415 1254.369 C 1321.183 1256.091, 1322.590 1259.638, 1323.542 1262.250 C 1324.493 1264.862, 1325.572 1267, 1325.938 1267 C 1326.305 1267, 1327.414 1269.250, 1328.403 1272 C 1329.392 1274.750, 1330.522 1277, 1330.915 1277 C 1331.308 1277, 1332.411 1278.639, 1333.366 1280.641 C 1335.274 1284.643, 1345.291 1297.446, 1350.922 1303.080 C 1352.890 1305.049, 1357.650 1309.231, 1361.500 1312.373 C 1370.395 1319.633, 1369.878 1319.254, 1374 1321.550 C 1375.925 1322.623, 1377.725 1323.786, 1378 1324.136 C 1378.823 1325.182, 1395.387 1333, 1396.781 1333 C 1397.490 1333, 1399.067 1333.641, 1400.285 1334.426 C 1405.438 1337.742, 1430.011 1341.891, 1444.500 1341.891 C 1458.989 1341.891, 1483.562 1337.742, 1488.715 1334.426 C 1489.933 1333.641, 1491.510 1333, 1492.219 1333 C 1493.613 1333, 1510.177 1325.182, 1511 1324.136 C 1511.275 1323.786, 1513.075 1322.623, 1515 1321.550 C 1516.925 1320.478, 1518.950 1319.259, 1519.500 1318.843 C 1523.692 1315.671, 1535.085 1306.096, 1537.658 1303.584 C 1542.492 1298.863, 1554.710 1283.276, 1556.180 1279.954 C 1556.900 1278.329, 1557.783 1277, 1558.144 1277 C 1558.504 1277, 1559.608 1274.750, 1560.597 1272 C 1561.586 1269.250, 1562.721 1267, 1563.120 1267 C 1563.519 1267, 1564.386 1265.313, 1565.048 1263.250 C 1565.710 1261.188, 1567.099 1257.605, 1568.133 1255.289 C 1572.400 1245.739, 1575.894 1225.573, 1575.894 1210.500 C 1575.894 1195.427, 1572.400 1175.261, 1568.133 1165.711 C 1567.099 1163.395, 1565.710 1159.813, 1565.048 1157.750 C 1564.386 1155.688, 1563.520 1154, 1563.123 1154 C 1562.726 1154, 1561.806 1152.313, 1561.078 1150.250 C 1560.350 1148.188, 1559.242 1145.825, 1558.616 1145 C 1557.990 1144.175, 1556.621 1141.925, 1555.573 1140 C 1550.040 1129.831, 1528.498 1107.059, 1521.250 1103.716 C 1520.013 1103.146, 1519 1102.404, 1519 1102.067 C 1519 1101.730, 1517.313 1100.569, 1515.250 1099.487 C 1513.188 1098.405, 1511.275 1097.229, 1511 1096.874 C 1510.253 1095.910, 1493.681 1088, 1492.408 1088 C 1491.803 1088, 1489.978 1087.337, 1488.354 1086.527 C 1486.729 1085.716, 1482.498 1084.395, 1478.950 1083.590 C 1475.403 1082.785, 1470.700 1081.623, 1468.500 1081.008 C 1463.223 1079.532, 1433.130 1078.859, 1425.500 1080.045 M 295.877 1561.361 C 292.234 1562.613, 286.834 1565.264, 283.877 1567.252 C 278.257 1571.031, 127.935 1721.070, 124.059 1726.769 C 122.837 1728.568, 120.748 1732.815, 119.418 1736.209 C 117.374 1741.425, 117 1744.104, 117 1753.533 C 117 1766.334, 118.768 1772.970, 124.421 1781.386 C 126.311 1784.199, 162.201 1820.767, 204.178 1862.649 C 285.982 1944.267, 285.174 1943.546, 299 1947.220 C 315.914 1951.715, 334.224 1946.782, 346.473 1934.431 C 355.849 1924.977, 360 1914.365, 360 1899.847 C 360 1889.166, 357.946 1881.174, 353.230 1873.500 C 351.878 1871.300, 335.869 1854.537, 317.656 1836.250 L 284.540 1803 1003.974 1803 L 1723.408 1803 1689.721 1836.823 C 1657.379 1869.295, 1655.885 1870.962, 1652.318 1878.573 C 1648.890 1885.886, 1648.570 1887.347, 1648.184 1897.438 C 1647.826 1906.807, 1648.095 1909.425, 1650.059 1915.688 C 1651.320 1919.710, 1652.723 1923, 1653.176 1923 C 1653.629 1923, 1654.011 1923.563, 1654.025 1924.250 C 1654.038 1924.938, 1655.634 1927.660, 1657.571 1930.300 C 1661.989 1936.322, 1674.022 1944.309, 1682.732 1946.999 C 1696.137 1951.139, 1711.839 1948.853, 1723.729 1941.030 C 1727.312 1938.672, 1758.553 1908.093, 1806.137 1860.366 C 1881.771 1784.506, 1882.824 1783.395, 1886.610 1775.500 C 1890.233 1767.946, 1890.469 1766.869, 1890.834 1756.177 C 1891.166 1746.453, 1890.906 1743.923, 1888.996 1738.267 C 1887.772 1734.645, 1885.282 1729.390, 1883.462 1726.590 C 1879.257 1720.120, 1730.276 1571.414, 1723.293 1566.716 C 1701.655 1552.160, 1670.157 1558.604, 1655.502 1580.586 C 1646.079 1594.719, 1644.751 1614.222, 1652.146 1629.871 C 1654.947 1635.799, 1658.882 1640.123, 1689.343 1670.750 L 1723.409 1705 1004.001 1705 L 284.592 1705 318.279 1671.177 C 350.607 1638.719, 352.116 1637.035, 355.686 1629.427 C 359.146 1622.055, 359.435 1620.718, 359.809 1610.322 C 360.155 1600.714, 359.895 1598.187, 357.957 1592.322 C 356.717 1588.570, 355.432 1585.275, 355.100 1585 C 354.768 1584.725, 353.823 1583.175, 352.998 1581.556 C 349.089 1573.876, 337.452 1564.999, 326.246 1561.149 C 317.539 1558.157, 304.943 1558.245, 295.877 1561.361" stroke="none" fill="#7c7c7c" fill-rule="evenodd"/></svg>