<svg xmlns="http://www.w3.org/2000/svg" width="2000" height="2000" viewBox="0 0 2000 2000" version="1.1"><path d="" stroke="none" fill="#747474" fill-rule="evenodd"/><path d="M 475 58.155 C 451.743 62.034, 430.068 69.380, 405.516 81.704 C 389.801 89.592, 379.321 96.646, 362.898 110.394 C 351.251 120.142, 346.626 124.877, 334.477 139.486 C 331.740 142.778, 328.596 146.481, 327.490 147.716 C 325.609 149.818, 319.095 160.216, 311.598 173.086 C 302.838 188.122, 292.356 215.895, 287.852 236 L 285.500 246.500 285.225 680 C 284.919 1161.328, 284.364 1120.392, 291.549 1146.607 C 297.717 1169.115, 311.575 1199.134, 323.814 1216.500 C 334.514 1231.682, 352.167 1250.589, 366.750 1262.485 L 374 1268.399 374 1341.637 C 374 1421.281, 373.951 1420.485, 379.742 1435 C 384.582 1447.134, 391.220 1456.963, 400.829 1466.226 C 410.680 1475.722, 417.569 1480.547, 428.443 1485.565 C 442.576 1492.088, 441.477 1492, 509 1492 C 577.206 1492, 575.398 1492.154, 590.673 1485.019 C 601.030 1480.182, 606.346 1476.509, 616.416 1467.237 C 631.536 1453.314, 641.433 1434.549, 643.966 1415 C 644.501 1410.875, 644.952 1386.237, 644.969 1360.250 L 645 1313 1002.429 1313 L 1359.858 1313 1360.251 1365.250 C 1360.695 1424.088, 1360.532 1422.632, 1368.592 1439.852 C 1375.817 1455.286, 1383.863 1465.034, 1398.506 1476.091 C 1404.945 1480.954, 1417.621 1487.242, 1426.355 1489.908 C 1432.999 1491.935, 1435.133 1492, 1495.355 1491.988 C 1561.806 1491.975, 1560.714 1492.048, 1573.692 1486.789 C 1588.182 1480.917, 1606.778 1466.107, 1615.159 1453.765 C 1620.890 1445.327, 1626.672 1432.712, 1628.990 1423.590 C 1630.914 1416.020, 1631 1412.514, 1631 1342.040 L 1631 1268.400 1642.689 1258.450 C 1654.432 1248.454, 1673.784 1227.109, 1681.731 1215.386 C 1687.983 1206.163, 1699.510 1184.534, 1704.319 1173 C 1708.390 1163.238, 1713.151 1148.326, 1715.973 1136.500 C 1720.112 1119.157, 1719.965 1135.702, 1719.965 685.500 C 1719.965 229.988, 1720.192 253.619, 1715.609 232.500 C 1709.202 202.980, 1692.297 166.994, 1674.301 144.569 C 1657.029 123.046, 1648.561 114.832, 1626.502 98.209 C 1603.115 80.584, 1565.614 64.736, 1533.696 58.989 C 1522.758 57.019, 1517.578 57.001, 1001.575 57.119 C 690.759 57.190, 478.281 57.608, 475 58.155 M 716.980 418.566 C 701.478 421.900, 687.655 429.446, 675.275 441.331 C 658.718 457.227, 651.518 472.387, 644.562 506 C 643.709 510.125, 639.867 525.650, 636.026 540.500 C 628.740 568.660, 617.384 614.189, 612.079 636.500 C 608.859 650.044, 601.657 678.354, 600.521 681.935 L 599.865 684 1002.500 684 L 1405.135 684 1404.436 681.798 C 1403.221 677.971, 1396.111 650.022, 1392.912 636.500 C 1388.135 616.305, 1376.648 570.262, 1368.962 540.500 C 1365.127 525.650, 1361.291 510.125, 1360.438 506 C 1355.755 483.371, 1350.356 467.983, 1343.311 457.184 C 1334.076 443.028, 1316.250 428.476, 1300.660 422.367 C 1286.128 416.672, 1304.297 416.993, 1001.792 417.082 C 767.010 417.150, 722.481 417.382, 716.980 418.566 M 535.175 867.048 C 525.129 869.315, 513.610 874.163, 505.505 879.534 C 487.046 891.766, 472.303 912.892, 467.347 934.213 C 465.224 943.344, 465.019 963.018, 466.952 972 C 471.187 991.676, 483.602 1011.129, 500.415 1024.434 C 529.028 1047.078, 571.522 1048.631, 602.500 1028.165 C 632.758 1008.175, 648.399 970.983, 641.051 936.500 C 634.761 906.987, 613.014 881.070, 586 870.893 C 570.240 864.956, 550.917 863.494, 535.175 867.048 M 1432.500 866.991 C 1415.811 870.792, 1402.951 877.566, 1390.695 889.011 C 1358.654 918.935, 1352.969 965.714, 1376.904 1002.500 C 1383.112 1012.041, 1395.997 1024.481, 1405.603 1030.208 C 1429.424 1044.410, 1460.118 1046.394, 1486.198 1035.417 C 1509.895 1025.443, 1529.853 1001.968, 1537.140 975.500 C 1539.956 965.269, 1540.181 944.278, 1537.588 933.667 C 1532.412 912.488, 1517.722 891.613, 1499.495 879.534 C 1480.432 866.901, 1454.341 862.016, 1432.500 866.991 M 463.877 1561.361 C 460.234 1562.613, 454.834 1565.264, 451.877 1567.252 C 446.257 1571.031, 295.935 1721.070, 292.059 1726.769 C 290.837 1728.568, 288.748 1732.815, 287.418 1736.209 C 285.374 1741.425, 285 1744.104, 285 1753.533 C 285 1766.334, 286.768 1772.970, 292.421 1781.386 C 294.311 1784.199, 330.201 1820.767, 372.178 1862.649 C 453.982 1944.267, 453.174 1943.546, 467 1947.220 C 483.914 1951.715, 502.224 1946.782, 514.473 1934.431 C 523.849 1924.977, 528 1914.365, 528 1899.847 C 528 1889.166, 525.946 1881.174, 521.230 1873.500 C 519.878 1871.300, 503.869 1854.537, 485.656 1836.250 L 452.540 1803 1000.474 1803 L 1548.408 1803 1514.721 1836.823 C 1482.379 1869.295, 1480.885 1870.962, 1477.318 1878.573 C 1473.890 1885.886, 1473.570 1887.347, 1473.184 1897.438 C 1472.826 1906.807, 1473.095 1909.425, 1475.059 1915.688 C 1476.320 1919.710, 1477.723 1923, 1478.176 1923 C 1478.629 1923, 1479.011 1923.563, 1479.025 1924.250 C 1479.038 1924.938, 1480.634 1927.660, 1482.571 1930.300 C 1486.989 1936.322, 1499.022 1944.309, 1507.732 1946.999 C 1521.137 1951.139, 1536.839 1948.853, 1548.729 1941.030 C 1552.312 1938.672, 1583.553 1908.093, 1631.137 1860.366 C 1706.771 1784.506, 1707.824 1783.395, 1711.610 1775.500 C 1715.233 1767.946, 1715.469 1766.869, 1715.834 1756.177 C 1716.166 1746.453, 1715.906 1743.923, 1713.996 1738.267 C 1712.772 1734.645, 1710.282 1729.390, 1708.462 1726.590 C 1704.257 1720.120, 1555.276 1571.414, 1548.293 1566.716 C 1526.655 1552.160, 1495.157 1558.604, 1480.502 1580.586 C 1471.079 1594.719, 1469.751 1614.222, 1477.146 1629.871 C 1479.947 1635.799, 1483.882 1640.123, 1514.343 1670.750 L 1548.409 1705 1000.501 1705 L 452.592 1705 486.279 1671.177 C 518.607 1638.719, 520.116 1637.035, 523.686 1629.427 C 527.146 1622.055, 527.435 1620.718, 527.809 1610.322 C 528.155 1600.714, 527.895 1598.187, 525.957 1592.322 C 524.717 1588.570, 523.432 1585.275, 523.100 1585 C 522.768 1584.725, 521.823 1583.175, 520.998 1581.556 C 517.089 1573.876, 505.452 1564.999, 494.246 1561.149 C 485.539 1558.157, 472.943 1558.245, 463.877 1561.361" stroke="none" fill="#7c7c7c" fill-rule="evenodd"/></svg>