<svg xmlns="http://www.w3.org/2000/svg" width="2000" height="2000" viewBox="0 0 2000 2000" version="1.1"><path d="" stroke="none" fill="#747474" fill-rule="evenodd"/><path d="M 695 284.155 C 671.743 288.034, 650.068 295.380, 625.516 307.704 C 609.801 315.592, 599.321 322.646, 582.898 336.394 C 571.251 346.142, 566.626 350.877, 554.477 365.486 C 551.740 368.778, 548.596 372.481, 547.490 373.716 C 545.609 375.818, 539.095 386.216, 531.598 399.086 C 522.838 414.122, 512.356 441.895, 507.852 462 L 505.500 472.500 505.225 906 C 504.919 1387.328, 504.364 1346.392, 511.549 1372.607 C 517.717 1395.115, 531.575 1425.134, 543.814 1442.500 C 554.514 1457.682, 572.167 1476.589, 586.750 1488.485 L 594 1494.399 594 1567.637 C 594 1647.281, 593.951 1646.485, 599.742 1661 C 604.582 1673.134, 611.220 1682.963, 620.829 1692.226 C 630.680 1701.722, 637.569 1706.547, 648.443 1711.565 C 662.576 1718.088, 661.477 1718, 729 1718 C 797.206 1718, 795.398 1718.154, 810.673 1711.019 C 821.030 1706.182, 826.346 1702.509, 836.416 1693.237 C 851.536 1679.314, 861.433 1660.549, 863.966 1641 C 864.501 1636.875, 864.952 1612.237, 864.969 1586.250 L 865 1539 1222.429 1539 L 1579.858 1539 1580.251 1591.250 C 1580.695 1650.088, 1580.532 1648.632, 1588.592 1665.852 C 1595.817 1681.286, 1603.863 1691.034, 1618.506 1702.091 C 1624.945 1706.954, 1637.621 1713.242, 1646.355 1715.908 C 1652.999 1717.935, 1655.133 1718, 1715.355 1717.988 C 1781.806 1717.975, 1780.714 1718.048, 1793.692 1712.789 C 1808.182 1706.917, 1826.778 1692.107, 1835.159 1679.765 C 1840.890 1671.327, 1846.672 1658.712, 1848.990 1649.590 C 1850.914 1642.020, 1851 1638.514, 1851 1568.040 L 1851 1494.400 1862.689 1484.450 C 1874.432 1474.454, 1893.784 1453.109, 1901.731 1441.386 C 1907.983 1432.163, 1919.510 1410.534, 1924.319 1399 C 1928.390 1389.238, 1933.151 1374.326, 1935.973 1362.500 C 1940.112 1345.157, 1939.965 1361.702, 1939.965 911.500 C 1939.965 455.988, 1940.192 479.619, 1935.609 458.500 C 1929.202 428.980, 1912.297 392.994, 1894.301 370.569 C 1877.029 349.046, 1868.561 340.832, 1846.502 324.209 C 1823.115 306.584, 1785.614 290.736, 1753.696 284.989 C 1742.758 283.019, 1737.578 283.001, 1221.575 283.119 C 910.759 283.190, 698.281 283.608, 695 284.155 M 239.528 286.145 C 236.243 287.335, 231.293 289.780, 228.528 291.578 C 222.099 295.757, 73.385 444.767, 68.716 451.707 C 54.160 473.345, 60.604 504.843, 82.586 519.498 C 96.719 528.921, 116.222 530.249, 131.871 522.854 C 137.799 520.053, 142.123 516.118, 172.750 485.657 L 207 451.591 207 999.499 L 207 1547.408 173.177 1513.721 C 140.719 1481.393, 139.035 1479.884, 131.427 1476.314 C 124.055 1472.854, 122.718 1472.565, 112.322 1472.191 C 102.714 1471.845, 100.187 1472.105, 94.322 1474.043 C 90.570 1475.283, 87.275 1476.568, 87 1476.900 C 86.725 1477.232, 85.175 1478.177, 83.556 1479.002 C 79.126 1481.256, 72.639 1487.831, 68.758 1494 C 58.132 1510.890, 58.323 1531.868, 69.252 1548.123 C 73.031 1553.743, 223.070 1704.065, 228.769 1707.941 C 230.568 1709.163, 234.815 1711.252, 238.209 1712.582 C 243.425 1714.626, 246.104 1715, 255.533 1715 C 268.334 1715, 274.970 1713.232, 283.386 1707.579 C 286.199 1705.689, 322.767 1669.799, 364.649 1627.822 C 446.267 1546.018, 445.546 1546.826, 449.220 1533 C 453.715 1516.086, 448.782 1497.776, 436.431 1485.527 C 426.977 1476.151, 416.365 1472, 401.847 1472 C 391.166 1472, 383.174 1474.054, 375.500 1478.770 C 373.300 1480.122, 356.537 1496.131, 338.250 1514.344 L 305 1547.460 305 999.526 L 305 451.592 338.823 485.279 C 371.295 517.621, 372.962 519.115, 380.573 522.682 C 387.886 526.110, 389.347 526.430, 399.438 526.816 C 408.807 527.174, 411.425 526.905, 417.688 524.941 C 421.710 523.680, 425 522.277, 425 521.824 C 425 521.371, 425.563 520.989, 426.250 520.975 C 426.938 520.962, 429.660 519.366, 432.300 517.429 C 438.322 513.011, 446.309 500.978, 448.999 492.268 C 453.139 478.863, 450.853 463.161, 443.030 451.271 C 440.672 447.688, 410.093 416.447, 362.366 368.863 C 286.560 293.283, 285.390 292.173, 277.500 288.381 C 269.763 284.663, 269.106 284.527, 257.500 284.259 C 247.252 284.022, 244.628 284.298, 239.528 286.145 M 936.980 644.566 C 921.478 647.900, 907.655 655.446, 895.275 667.331 C 878.718 683.227, 871.518 698.387, 864.562 732 C 863.709 736.125, 859.867 751.650, 856.026 766.500 C 848.740 794.660, 837.384 840.189, 832.079 862.500 C 828.859 876.044, 821.657 904.354, 820.521 907.935 L 819.865 910 1222.500 910 L 1625.135 910 1624.436 907.798 C 1623.221 903.971, 1616.111 876.022, 1612.912 862.500 C 1608.135 842.305, 1596.648 796.262, 1588.962 766.500 C 1585.127 751.650, 1581.291 736.125, 1580.438 732 C 1575.755 709.371, 1570.356 693.983, 1563.311 683.184 C 1554.076 669.028, 1536.250 654.476, 1520.660 648.367 C 1506.128 642.672, 1524.297 642.993, 1221.792 643.082 C 987.010 643.150, 942.481 643.382, 936.980 644.566 M 755.175 1093.048 C 745.129 1095.315, 733.610 1100.163, 725.505 1105.534 C 707.046 1117.766, 692.303 1138.892, 687.347 1160.213 C 685.224 1169.344, 685.019 1189.018, 686.952 1198 C 691.187 1217.676, 703.602 1237.129, 720.415 1250.434 C 749.028 1273.078, 791.522 1274.631, 822.500 1254.165 C 852.758 1234.175, 868.399 1196.983, 861.051 1162.500 C 854.761 1132.987, 833.014 1107.070, 806 1096.893 C 790.240 1090.956, 770.917 1089.494, 755.175 1093.048 M 1652.500 1092.991 C 1635.811 1096.792, 1622.951 1103.566, 1610.695 1115.011 C 1578.654 1144.935, 1572.969 1191.714, 1596.904 1228.500 C 1603.112 1238.041, 1615.997 1250.481, 1625.603 1256.208 C 1649.424 1270.410, 1680.118 1272.394, 1706.198 1261.417 C 1729.895 1251.443, 1749.853 1227.968, 1757.140 1201.500 C 1759.956 1191.269, 1760.181 1170.278, 1757.588 1159.667 C 1752.412 1138.488, 1737.722 1117.613, 1719.495 1105.534 C 1700.432 1092.901, 1674.341 1088.016, 1652.500 1092.991" stroke="none" fill="#7c7c7c" fill-rule="evenodd"/></svg>